<svg width="16" height="16" viewBox="0 0 16 16" fill="none" xmlns="http://www.w3.org/2000/svg">
<path d="M4.6668 4.66655H11.3335V5.85988C11.3335 6.15988 11.6935 6.30655 11.9001 6.09321L13.7601 4.23321C13.8935 4.09988 13.8935 3.89321 13.7601 3.75988L11.9001 1.89988C11.6935 1.69321 11.3335 1.83988 11.3335 2.13988V3.33321H4.00014C3.63347 3.33321 3.33347 3.63321 3.33347 3.99988V6.66655C3.33347 7.03321 3.63347 7.33321 4.00014 7.33321C4.3668 7.33321 4.6668 7.03321 4.6668 6.66655V4.66655ZM11.3335 11.3332H4.6668V10.1399C4.6668 9.83988 4.3068 9.69321 4.10014 9.90655L2.24014 11.7665C2.1068 11.8999 2.1068 12.1065 2.24014 12.2399L4.10014 14.0999C4.3068 14.3065 4.6668 14.1599 4.6668 13.8599V12.6665H12.0001C12.3668 12.6665 12.6668 12.3665 12.6668 11.9999V9.33321C12.6668 8.96655 12.3668 8.66655 12.0001 8.66655C11.6335 8.66655 11.3335 8.96655 11.3335 9.33321V11.3332Z" fill="#4A99E9"/>
</svg>
