<svg width="16" height="16" viewBox="0 0 16 16" fill="none" xmlns="http://www.w3.org/2000/svg">
<path d="M13.1066 2.65995C11.3466 1.45995 9.17331 2.01995 7.99998 3.39328C6.82665 2.01995 4.65331 1.45328 2.89331 2.65995C1.95998 3.29995 1.37331 4.37995 1.33331 5.51995C1.23998 8.10661 3.53331 10.1799 7.03331 13.3599L7.09998 13.4199C7.60665 13.8799 8.38665 13.8799 8.89331 13.4133L8.96665 13.3466C12.4666 10.1733 14.7533 8.09995 14.6666 5.51328C14.6266 4.37995 14.04 3.29995 13.1066 2.65995V2.65995ZM8.06665 12.3666L7.99998 12.4333L7.93331 12.3666C4.75998 9.49328 2.66665 7.59328 2.66665 5.66661C2.66665 4.33328 3.66665 3.33328 4.99998 3.33328C6.02665 3.33328 7.02665 3.99328 7.37998 4.90661H8.62665C8.97331 3.99328 9.97331 3.33328 11 3.33328C12.3333 3.33328 13.3333 4.33328 13.3333 5.66661C13.3333 7.59328 11.24 9.49328 8.06665 12.3666Z" fill="#E03C39"/>
</svg>
