<svg width="35" height="34" viewBox="0 0 35 34" fill="none" xmlns="http://www.w3.org/2000/svg">
<path d="M24.5 8H10.5C9.4 8 8.5 8.9 8.5 10V24C8.5 25.1 9.4 26 10.5 26H24.5C25.6 26 26.5 25.1 26.5 24V10C26.5 8.9 25.6 8 24.5 8ZM23.5 24H11.5C10.95 24 10.5 23.55 10.5 23V11C10.5 10.45 10.95 10 11.5 10H23.5C24.05 10 24.5 10.45 24.5 11V23C24.5 23.55 24.05 24 23.5 24ZM19.06 17.81L16.71 20.83L15.15 18.95C14.95 18.7 14.57 18.71 14.37 18.96L12.63 21.19C12.37 21.52 12.61 22 13.02 22H22C22.41 22 22.65 21.53 22.4 21.2L19.85 17.81C19.66 17.55 19.26 17.55 19.06 17.81Z" fill="#4A99E9"/>
</svg>
